<svg width="366" height="220" viewBox="0 0 366 220" fill="none" xmlns="http://www.w3.org/2000/svg">
<path fill-rule="evenodd" clip-rule="evenodd" d="M182.667 0C133.956 0 103.511 24.3556 91.3333 73.0667C109.6 48.7111 130.911 39.5778 155.267 45.6667C169.163 49.1373 179.095 59.2246 190.088 70.3808C207.996 88.5595 228.726 109.6 274 109.6C322.711 109.6 353.156 85.2444 365.333 36.5333C347.067 60.8889 325.756 70.0222 301.4 63.9333C287.504 60.4627 277.572 50.3754 266.578 39.2192C248.67 21.0405 227.941 0 182.667 0ZM91.3333 109.6C42.6222 109.6 12.1778 133.956 0 182.667C18.2667 158.311 39.5778 149.178 63.9333 155.267C77.8295 158.744 87.7612 168.825 98.755 179.981C116.663 198.16 137.392 219.2 182.667 219.2C231.378 219.2 261.822 194.844 274 146.133C255.733 170.489 234.422 179.622 210.067 173.533C196.17 170.063 186.239 159.975 175.245 148.819C157.337 130.64 136.608 109.6 91.3333 109.6Z" fill="#38BDF8"/>
</svg>
